<svg width="65" height="32" viewBox="0 0 65 32" fill="none" xmlns="http://www.w3.org/2000/svg">
<path d="M29.875 25.0002V17.6002C29.875 17.0402 29.875 16.7601 29.984 16.5462C30.0799 16.3581 30.2328 16.2051 30.421 16.1092C30.6349 16.0002 30.9149 16.0002 31.475 16.0002H34.275C34.8351 16.0002 35.1151 16.0002 35.329 16.1092C35.5172 16.2051 35.6701 16.3581 35.766 16.5462C35.875 16.7601 35.875 17.0402 35.875 17.6002V25.0002M31.8927 6.76424L25.1104 12.0394C24.657 12.392 24.4303 12.5683 24.267 12.7891C24.1224 12.9847 24.0146 13.205 23.949 13.4393C23.875 13.7038 23.875 13.9909 23.875 14.5653V21.8002C23.875 22.9203 23.875 23.4804 24.093 23.9082C24.2847 24.2845 24.5907 24.5905 24.967 24.7822C25.3948 25.0002 25.9549 25.0002 27.075 25.0002H38.675C39.7951 25.0002 40.3552 25.0002 40.783 24.7822C41.1593 24.5905 41.4653 24.2845 41.657 23.9082C41.875 23.4804 41.875 22.9203 41.875 21.8002V14.5653C41.875 13.9909 41.875 13.7038 41.801 13.4393C41.7354 13.205 41.6276 12.9847 41.483 12.7891C41.3197 12.5683 41.093 12.392 40.6396 12.0394L33.8573 6.76424C33.506 6.49099 33.3303 6.35436 33.1363 6.30184C32.9652 6.2555 32.7848 6.2555 32.6137 6.30184C32.4197 6.35436 32.244 6.49099 31.8927 6.76424Z" stroke="#15B86C" stroke-width="2" stroke-linecap="round" stroke-linejoin="round"/>
</svg>
